<mxfile host="app.diagrams.net" modified="2023-07-18T08:17:27.489Z" agent="Mozilla/5.0 (Windows NT 10.0; Win64; x64; rv:109.0) Gecko/20100101 Firefox/115.0" version="21.6.2" etag="r8oSfSv6tk292Pi-d_4I" type="github">
  <diagram name="Pagina-1" id="801C8YahI0lACeIUFIUa">
    <mxGraphModel>
      <root>
        <mxCell id="0" />
        <mxCell id="1" parent="0" />
      </root>
    </mxGraphModel>
  </diagram>
</mxfile>
